<?xml version="1.0" standalone="no"?>
<!DOCTYPE svg PUBLIC "-//W3C//DTD SVG 20010904//EN"
 "http://www.w3.org/TR/2001/REC-SVG-20010904/DTD/svg10.dtd">
<svg version="1.0" xmlns="http://www.w3.org/2000/svg"
 width="512.000000pt" height="512.000000pt" viewBox="0 0 512.000000 512.000000"
 preserveAspectRatio="xMidYMid meet">

<g transform="translate(0.000000,512.000000) scale(0.100000,-0.100000)"
fill="#000000" stroke="none">
<path d="M2315 4675 c-827 -118 -1495 -670 -1750 -1449 -82 -250 -110 -449
-102 -730 9 -327 70 -579 212 -871 271 -559 782 -976 1383 -1130 206 -53 271
-60 532 -59 260 0 323 7 531 60 270 68 536 196 769 372 112 85 317 293 404
411 283 382 426 812 426 1281 0 573 -219 1100 -624 1506 -321 321 -699 516
-1161 600 -126 23 -487 28 -620 9z m414 -415 c1027 -91 1739 -1045 1531 -2048
-90 -432 -354 -823 -720 -1067 -858 -572 -2015 -267 -2475 653 -311 620 -215
1360 244 1889 275 318 702 534 1125 572 132 12 168 12 295 1z"/>
<path d="M1740 2560 l0 -1070 210 0 210 0 2 428 3 427 155 0 155 0 285 -427
285 -427 253 -1 c138 0 252 3 252 7 0 3 -131 201 -291 440 -273 407 -289 435
-267 441 12 3 59 23 103 45 61 31 99 59 160 121 127 128 185 267 185 446 0
309 -221 570 -530 626 -57 10 -209 13 -622 14 l-548 0 0 -1070z m1159 614
c132 -66 157 -229 51 -335 -67 -67 -91 -71 -470 -67 l-315 3 -3 213 -2 212
343 0 343 0 53 -26z"/>
</g>
</svg>
